<svg xmlns="http://www.w3.org/2000/svg" width="344" height="402" viewBox="0 0 344 402">
<defs>
<linearGradient id="bg" x1="0" y1="0" x2="0.2" y2="1">
 <stop offset="0" stop-color="#262a2f"/><stop offset="0.55" stop-color="#191c21"/><stop offset="1" stop-color="#0d0f13"/></linearGradient>
<radialGradient id="bgglow" cx="0.5" cy="0.42" r="0.55">
 <stop offset="0" stop-color="#37454f" stop-opacity="0.85"/><stop offset="0.6" stop-color="#243038" stop-opacity="0.3"/><stop offset="1" stop-color="#243038" stop-opacity="0"/></radialGradient>
<radialGradient id="ringgloss" gradientUnits="userSpaceOnUse" cx="184" cy="158" r="131">
 <stop offset="0.59" stop-color="#000" stop-opacity="0.34"/><stop offset="0.63" stop-color="#000" stop-opacity="0.10"/>
 <stop offset="0.70" stop-color="#fff" stop-opacity="0.17"/><stop offset="0.75" stop-color="#fff" stop-opacity="0.02"/>
 <stop offset="0.90" stop-color="#fff" stop-opacity="0"/><stop offset="0.97" stop-color="#fff" stop-opacity="0.11"/><stop offset="1" stop-color="#000" stop-opacity="0.42"/></radialGradient>
<radialGradient id="apdisc" gradientUnits="userSpaceOnUse" cx="176" cy="148" r="82">
 <stop offset="0" stop-color="#3b4751"/><stop offset="0.7" stop-color="#2c363f"/><stop offset="1" stop-color="#212a32"/></radialGradient>
<radialGradient id="apvig" gradientUnits="userSpaceOnUse" cx="184" cy="158" r="70">
 <stop offset="0" stop-color="#000" stop-opacity="0.5"/><stop offset="0.5" stop-color="#000" stop-opacity="0.13"/><stop offset="1" stop-color="#000" stop-opacity="0"/></radialGradient>
<linearGradient id="stem" gradientUnits="userSpaceOnUse" x1="46" y1="0" x2="110" y2="0">
 <stop offset="0" stop-color="#2f5f88"/><stop offset="0.12" stop-color="#0c3266"/><stop offset="0.32" stop-color="#0e3260"/>
 <stop offset="0.52" stop-color="#17529a"/><stop offset="0.65" stop-color="#2068b0"/><stop offset="0.82" stop-color="#134f96"/>
 <stop offset="0.95" stop-color="#3580c4"/><stop offset="1" stop-color="#4aa6d8"/></linearGradient>
<linearGradient id="stemv" gradientUnits="userSpaceOnUse" x1="0" y1="120" x2="0" y2="378">
 <stop offset="0" stop-color="#4fb0d6" stop-opacity="0.95"/><stop offset="0.16" stop-color="#42a0c8" stop-opacity="0.4"/>
 <stop offset="0.30" stop-color="#42a0c8" stop-opacity="0"/><stop offset="0.82" stop-color="#020c1c" stop-opacity="0"/>
 <stop offset="1" stop-color="#02060f" stop-opacity="0.62"/></linearGradient>
</defs>
<rect width="344" height="402" fill="url(#bg)"/>
<rect width="344" height="402" fill="url(#bgglow)"/>
<g shape-rendering="geometricPrecision">
<path d="M262.00,158.00 L315.00,158.00 A131,131 0 0 1 314.83,164.73 L261.90,162.01 A78,78 0 0 0 262.00,158.00 Z" fill="#e89b47" stroke="#e89b47" stroke-width="1"/>
<path d="M261.96,160.45 L314.94,162.11 A131,131 0 0 1 314.55,168.84 L261.73,164.45 A78,78 0 0 0 261.96,160.45 Z" fill="#e1903b" stroke="#e1903b" stroke-width="1"/>
<path d="M261.85,162.90 L314.74,166.23 A131,131 0 0 1 314.15,172.93 L261.49,166.89 A78,78 0 0 0 261.85,162.90 Z" fill="#e5943d" stroke="#e5943d" stroke-width="1"/>
<path d="M261.65,165.34 L314.42,170.33 A131,131 0 0 1 313.61,177.01 L261.17,169.32 A78,78 0 0 0 261.65,165.34 Z" fill="#f0a24d" stroke="#f0a24d" stroke-width="1"/>
<path d="M261.38,167.78 L313.97,174.42 A131,131 0 0 1 312.95,181.08 L260.78,171.74 A78,78 0 0 0 261.38,167.78 Z" fill="#e89441" stroke="#e89441" stroke-width="1"/>
<path d="M261.04,170.20 L313.39,178.49 A131,131 0 0 1 312.16,185.12 L260.31,174.15 A78,78 0 0 0 261.04,170.20 Z" fill="#e78f3e" stroke="#e78f3e" stroke-width="1"/>
<path d="M260.62,172.62 L312.68,182.55 A131,131 0 0 1 311.25,189.13 L259.77,176.53 A78,78 0 0 0 260.62,172.62 Z" fill="#e68f3f" stroke="#e68f3f" stroke-width="1"/>
<path d="M260.12,175.02 L311.85,186.58 A131,131 0 0 1 310.21,193.11 L259.15,178.90 A78,78 0 0 0 260.12,175.02 Z" fill="#e38838" stroke="#e38838" stroke-width="1"/>
<path d="M259.55,177.40 L310.88,190.58 A131,131 0 0 1 309.04,197.06 L258.45,181.25 A78,78 0 0 0 259.55,177.40 Z" fill="#e08134" stroke="#e08134" stroke-width="1"/>
<path d="M258.90,179.76 L309.80,194.55 A131,131 0 0 1 307.75,200.96 L257.69,183.58 A78,78 0 0 0 258.90,179.76 Z" fill="#db7426" stroke="#db7426" stroke-width="1"/>
<path d="M258.18,182.10 L308.59,198.48 A131,131 0 0 1 306.34,204.83 L256.85,185.88 A78,78 0 0 0 258.18,182.10 Z" fill="#da6a20" stroke="#da6a20" stroke-width="1"/>
<path d="M257.39,184.42 L307.26,202.37 A131,131 0 0 1 304.81,208.65 L255.93,188.16 A78,78 0 0 0 257.39,184.42 Z" fill="#da601b" stroke="#da601b" stroke-width="1"/>
<path d="M256.52,186.71 L305.80,206.22 A131,131 0 0 1 303.16,212.42 L254.95,190.40 A78,78 0 0 0 256.52,186.71 Z" fill="#da5f1c" stroke="#da5f1c" stroke-width="1"/>
<path d="M255.58,188.98 L304.23,210.03 A131,131 0 0 1 301.39,216.14 L253.90,192.62 A78,78 0 0 0 255.58,188.98 Z" fill="#d95a1c" stroke="#d95a1c" stroke-width="1"/>
<path d="M254.58,191.21 L302.53,213.78 A131,131 0 0 1 299.51,219.80 L252.78,194.79 A78,78 0 0 0 254.58,191.21 Z" fill="#d64f17" stroke="#d64f17" stroke-width="1"/>
<path d="M253.50,193.41 L300.72,217.47 A131,131 0 0 1 297.51,223.39 L251.59,196.94 A78,78 0 0 0 253.50,193.41 Z" fill="#d44714" stroke="#d44714" stroke-width="1"/>
<path d="M252.35,195.58 L298.80,221.11 A131,131 0 0 1 295.40,226.93 L250.33,199.04 A78,78 0 0 0 252.35,195.58 Z" fill="#d23e13" stroke="#d23e13" stroke-width="1"/>
<path d="M251.14,197.71 L296.76,224.68 A131,131 0 0 1 293.18,230.39 L249.01,201.10 A78,78 0 0 0 251.14,197.71 Z" fill="#d03613" stroke="#d03613" stroke-width="1"/>
<path d="M249.86,199.79 L294.61,228.19 A131,131 0 0 1 290.85,233.79 L247.62,203.12 A78,78 0 0 0 249.86,199.79 Z" fill="#d13516" stroke="#d13516" stroke-width="1"/>
<path d="M248.51,201.84 L292.35,231.63 A131,131 0 0 1 288.42,237.10 L246.17,205.10 A78,78 0 0 0 248.51,201.84 Z" fill="#d2301a" stroke="#d2301a" stroke-width="1"/>
<path d="M247.10,203.85 L289.98,235.00 A131,131 0 0 1 285.88,240.34 L244.66,207.03 A78,78 0 0 0 247.10,203.85 Z" fill="#cb2a16" stroke="#cb2a16" stroke-width="1"/>
<path d="M245.63,205.81 L287.51,238.29 A131,131 0 0 1 283.25,243.50 L243.09,208.91 A78,78 0 0 0 245.63,205.81 Z" fill="#c42212" stroke="#c42212" stroke-width="1"/>
<path d="M244.10,207.72 L284.94,241.50 A131,131 0 0 1 280.51,246.58 L241.47,210.74 A78,78 0 0 0 244.10,207.72 Z" fill="#c41c15" stroke="#c41c15" stroke-width="1"/>
<path d="M242.51,209.58 L282.26,244.63 A131,131 0 0 1 277.68,249.57 L239.78,212.52 A78,78 0 0 0 242.51,209.58 Z" fill="#bf1917" stroke="#bf1917" stroke-width="1"/>
<path d="M240.86,211.39 L279.49,247.68 A131,131 0 0 1 274.76,252.46 L238.04,214.25 A78,78 0 0 0 240.86,211.39 Z" fill="#bd1719" stroke="#bd1719" stroke-width="1"/>
<path d="M239.15,213.15 L276.63,250.63 A131,131 0 0 1 271.75,255.27 L236.25,215.92 A78,78 0 0 0 239.15,213.15 Z" fill="#b80f17" stroke="#b80f17" stroke-width="1"/>
<path d="M237.39,214.86 L273.68,253.49 A131,131 0 0 1 268.65,257.98 L234.40,217.53 A78,78 0 0 0 237.39,214.86 Z" fill="#b70f17" stroke="#b70f17" stroke-width="1"/>
<path d="M235.58,216.51 L270.63,256.26 A131,131 0 0 1 265.47,260.59 L232.51,219.08 A78,78 0 0 0 235.58,216.51 Z" fill="#b20a16" stroke="#b20a16" stroke-width="1"/>
<path d="M233.72,218.10 L267.50,258.94 A131,131 0 0 1 262.20,263.10 L230.56,220.58 A78,78 0 0 0 233.72,218.10 Z" fill="#ac0618" stroke="#ac0618" stroke-width="1"/>
<path d="M231.81,219.63 L264.29,261.51 A131,131 0 0 1 258.86,265.50 L228.58,222.01 A78,78 0 0 0 231.81,219.63 Z" fill="#a9071d" stroke="#a9071d" stroke-width="1"/>
<path d="M229.85,221.10 L261.00,263.98 A131,131 0 0 1 255.45,267.80 L226.54,223.38 A78,78 0 0 0 229.85,221.10 Z" fill="#a7071d" stroke="#a7071d" stroke-width="1"/>
<path d="M227.84,222.51 L257.63,266.35 A131,131 0 0 1 251.97,269.99 L224.47,224.68 A78,78 0 0 0 227.84,222.51 Z" fill="#a7061d" stroke="#a7061d" stroke-width="1"/>
<path d="M225.79,223.86 L254.19,268.61 A131,131 0 0 1 248.42,272.07 L222.35,225.92 A78,78 0 0 0 225.79,223.86 Z" fill="#a5051f" stroke="#a5051f" stroke-width="1"/>
<path d="M223.71,225.14 L250.68,270.76 A131,131 0 0 1 244.80,274.04 L220.20,227.09 A78,78 0 0 0 223.71,225.14 Z" fill="#a00220" stroke="#a00220" stroke-width="1"/>
<path d="M221.58,226.35 L247.11,272.80 A131,131 0 0 1 241.13,275.89 L218.01,228.19 A78,78 0 0 0 221.58,226.35 Z" fill="#9c0423" stroke="#9c0423" stroke-width="1"/>
<path d="M219.41,227.50 L243.47,274.72 A131,131 0 0 1 237.40,277.62 L215.79,229.23 A78,78 0 0 0 219.41,227.50 Z" fill="#920423" stroke="#920423" stroke-width="1"/>
<path d="M217.21,228.58 L239.78,276.53 A131,131 0 0 1 233.61,279.24 L213.54,230.19 A78,78 0 0 0 217.21,228.58 Z" fill="#900328" stroke="#900328" stroke-width="1"/>
<path d="M214.98,229.58 L236.03,278.23 A131,131 0 0 1 229.78,280.74 L211.26,231.08 A78,78 0 0 0 214.98,229.58 Z" fill="#8d0126" stroke="#8d0126" stroke-width="1"/>
<path d="M212.71,230.52 L232.22,279.80 A131,131 0 0 1 225.90,282.12 L208.95,231.90 A78,78 0 0 0 212.71,230.52 Z" fill="#930425" stroke="#930425" stroke-width="1"/>
<path d="M210.42,231.39 L228.37,281.26 A131,131 0 0 1 221.98,283.37 L206.61,232.65 A78,78 0 0 0 210.42,231.39 Z" fill="#930120" stroke="#930120" stroke-width="1"/>
<path d="M208.10,232.18 L224.48,282.59 A131,131 0 0 1 218.02,284.50 L204.26,233.32 A78,78 0 0 0 208.10,232.18 Z" fill="#b52540" stroke="#b52540" stroke-width="1"/>
<path d="M205.76,232.90 L220.55,283.80 A131,131 0 0 1 214.03,285.51 L201.88,233.92 A78,78 0 0 0 205.76,232.90 Z" fill="#e45874" stroke="#e45874" stroke-width="1"/>
<path d="M203.40,233.55 L216.58,284.88 A131,131 0 0 1 210.01,286.39 L199.49,234.45 A78,78 0 0 0 203.40,233.55 Z" fill="#e3577a" stroke="#e3577a" stroke-width="1"/>
<path d="M201.02,234.12 L212.58,285.85 A131,131 0 0 1 205.97,287.14 L197.08,234.90 A78,78 0 0 0 201.02,234.12 Z" fill="#d8648f" stroke="#d8648f" stroke-width="1"/>
<path d="M198.62,234.62 L208.55,286.68 A131,131 0 0 1 201.90,287.77 L194.66,235.27 A78,78 0 0 0 198.62,234.62 Z" fill="#955286" stroke="#955286" stroke-width="1"/>
<path d="M196.20,235.04 L204.49,287.39 A131,131 0 0 1 197.82,288.27 L192.23,235.56 A78,78 0 0 0 196.20,235.04 Z" fill="#190e49" stroke="#190e49" stroke-width="1"/>
<path d="M193.78,235.38 L200.42,287.97 A131,131 0 0 1 193.72,288.64 L189.79,235.79 A78,78 0 0 0 193.78,235.38 Z" fill="#031756" stroke="#031756" stroke-width="1"/>
<path d="M191.34,235.65 L196.33,288.42 A131,131 0 0 1 189.61,288.88 L187.34,235.93 A78,78 0 0 0 191.34,235.65 Z" fill="#002f6b" stroke="#002f6b" stroke-width="1"/>
<path d="M188.90,235.85 L192.23,288.74 A131,131 0 0 1 185.50,288.99 L184.89,235.99 A78,78 0 0 0 188.90,235.85 Z" fill="#003875" stroke="#003875" stroke-width="1"/>
<path d="M186.45,235.96 L188.11,288.94 A131,131 0 0 1 181.38,288.97 L182.44,235.98 A78,78 0 0 0 186.45,235.96 Z" fill="#003b78" stroke="#003b78" stroke-width="1"/>
<path d="M184.00,236.00 L184.00,289.00 A131,131 0 0 1 177.27,288.83 L179.99,235.90 A78,78 0 0 0 184.00,236.00 Z" fill="#003d7a" stroke="#003d7a" stroke-width="1"/>
<path d="M181.55,235.96 L179.89,288.94 A131,131 0 0 1 173.16,288.55 L177.55,235.73 A78,78 0 0 0 181.55,235.96 Z" fill="#00417e" stroke="#00417e" stroke-width="1"/>
<path d="M179.10,235.85 L175.77,288.74 A131,131 0 0 1 169.07,288.15 L175.11,235.49 A78,78 0 0 0 179.10,235.85 Z" fill="#004583" stroke="#004583" stroke-width="1"/>
<path d="M176.66,235.65 L171.67,288.42 A131,131 0 0 1 164.99,287.61 L172.68,235.17 A78,78 0 0 0 176.66,235.65 Z" fill="#004c91" stroke="#004c91" stroke-width="1"/>
<path d="M174.22,235.38 L167.58,287.97 A131,131 0 0 1 160.92,286.95 L170.26,234.78 A78,78 0 0 0 174.22,235.38 Z" fill="#00549a" stroke="#00549a" stroke-width="1"/>
<path d="M171.80,235.04 L163.51,287.39 A131,131 0 0 1 156.88,286.16 L167.85,234.31 A78,78 0 0 0 171.80,235.04 Z" fill="#0967af" stroke="#0967af" stroke-width="1"/>
<path d="M169.38,234.62 L159.45,286.68 A131,131 0 0 1 152.87,285.25 L165.47,233.77 A78,78 0 0 0 169.38,234.62 Z" fill="#1878c2" stroke="#1878c2" stroke-width="1"/>
<path d="M166.98,234.12 L155.42,285.85 A131,131 0 0 1 148.89,284.21 L163.10,233.15 A78,78 0 0 0 166.98,234.12 Z" fill="#167ec9" stroke="#167ec9" stroke-width="1"/>
<path d="M164.60,233.55 L151.42,284.88 A131,131 0 0 1 144.94,283.04 L160.75,232.45 A78,78 0 0 0 164.60,233.55 Z" fill="#208ad3" stroke="#208ad3" stroke-width="1"/>
<path d="M162.24,232.90 L147.45,283.80 A131,131 0 0 1 141.04,281.75 L158.42,231.69 A78,78 0 0 0 162.24,232.90 Z" fill="#2692da" stroke="#2692da" stroke-width="1"/>
<path d="M159.90,232.18 L143.52,282.59 A131,131 0 0 1 137.17,280.34 L156.12,230.85 A78,78 0 0 0 159.90,232.18 Z" fill="#2894d9" stroke="#2894d9" stroke-width="1"/>
<path d="M157.58,231.39 L139.63,281.26 A131,131 0 0 1 133.35,278.81 L153.84,229.93 A78,78 0 0 0 157.58,231.39 Z" fill="#2999dc" stroke="#2999dc" stroke-width="1"/>
<path d="M155.29,230.52 L135.78,279.80 A131,131 0 0 1 129.58,277.16 L151.60,228.95 A78,78 0 0 0 155.29,230.52 Z" fill="#339ede" stroke="#339ede" stroke-width="1"/>
<path d="M153.02,229.58 L131.97,278.23 A131,131 0 0 1 125.86,275.39 L149.38,227.90 A78,78 0 0 0 153.02,229.58 Z" fill="#2e95d6" stroke="#2e95d6" stroke-width="1"/>
<path d="M150.79,228.58 L128.22,276.53 A131,131 0 0 1 122.20,273.51 L147.21,226.78 A78,78 0 0 0 150.79,228.58 Z" fill="#2c90d0" stroke="#2c90d0" stroke-width="1"/>
<path d="M148.59,227.50 L124.53,274.72 A131,131 0 0 1 118.61,271.51 L145.06,225.59 A78,78 0 0 0 148.59,227.50 Z" fill="#2183c5" stroke="#2183c5" stroke-width="1"/>
<path d="M146.42,226.35 L120.89,272.80 A131,131 0 0 1 115.07,269.40 L142.96,224.33 A78,78 0 0 0 146.42,226.35 Z" fill="#1671b5" stroke="#1671b5" stroke-width="1"/>
<path d="M144.29,225.14 L117.32,270.76 A131,131 0 0 1 111.61,267.18 L140.90,223.01 A78,78 0 0 0 144.29,225.14 Z" fill="#025294" stroke="#025294" stroke-width="1"/>
<path d="M142.21,223.86 L113.81,268.61 A131,131 0 0 1 108.21,264.85 L138.88,221.62 A78,78 0 0 0 142.21,223.86 Z" fill="#003f78" stroke="#003f78" stroke-width="1"/>
<path d="M140.16,222.51 L110.37,266.35 A131,131 0 0 1 104.90,262.42 L136.90,220.17 A78,78 0 0 0 140.16,222.51 Z" fill="#002b5e" stroke="#002b5e" stroke-width="1"/>
<path d="M138.15,221.10 L107.00,263.98 A131,131 0 0 1 101.66,259.88 L134.97,218.66 A78,78 0 0 0 138.15,221.10 Z" fill="#00295b" stroke="#00295b" stroke-width="1"/>
<path d="M136.19,219.63 L103.71,261.51 A131,131 0 0 1 98.50,257.25 L133.09,217.09 A78,78 0 0 0 136.19,219.63 Z" fill="#002557" stroke="#002557" stroke-width="1"/>
<path d="M134.28,218.10 L100.50,258.94 A131,131 0 0 1 95.42,254.51 L131.26,215.47 A78,78 0 0 0 134.28,218.10 Z" fill="#002354" stroke="#002354" stroke-width="1"/>
<path d="M132.42,216.51 L97.37,256.26 A131,131 0 0 1 92.43,251.68 L129.48,213.78 A78,78 0 0 0 132.42,216.51 Z" fill="#00224f" stroke="#00224f" stroke-width="1"/>
<path d="M130.61,214.86 L94.32,253.49 A131,131 0 0 1 89.54,248.76 L127.75,212.04 A78,78 0 0 0 130.61,214.86 Z" fill="#00224a" stroke="#00224a" stroke-width="1"/>
<path d="M128.85,213.15 L91.37,250.63 A131,131 0 0 1 86.73,245.75 L126.08,210.25 A78,78 0 0 0 128.85,213.15 Z" fill="#1473b1" stroke="#1473b1" stroke-width="1"/>
<path d="M127.14,211.39 L88.51,247.68 A131,131 0 0 1 84.02,242.65 L124.47,208.40 A78,78 0 0 0 127.14,211.39 Z" fill="#1798dc" stroke="#1798dc" stroke-width="1"/>
<path d="M125.49,209.58 L85.74,244.63 A131,131 0 0 1 81.41,239.47 L122.92,206.51 A78,78 0 0 0 125.49,209.58 Z" fill="#0084c9" stroke="#0084c9" stroke-width="1"/>
<path d="M123.90,207.72 L83.06,241.50 A131,131 0 0 1 78.90,236.20 L121.42,204.56 A78,78 0 0 0 123.90,207.72 Z" fill="#0073b7" stroke="#0073b7" stroke-width="1"/>
<path d="M122.37,205.81 L80.49,238.29 A131,131 0 0 1 76.50,232.86 L119.99,202.58 A78,78 0 0 0 122.37,205.81 Z" fill="#0074bd" stroke="#0074bd" stroke-width="1"/>
<path d="M120.90,203.85 L78.02,235.00 A131,131 0 0 1 74.20,229.45 L118.62,200.54 A78,78 0 0 0 120.90,203.85 Z" fill="#0073b9" stroke="#0073b9" stroke-width="1"/>
<path d="M119.49,201.84 L75.65,231.63 A131,131 0 0 1 72.01,225.97 L117.32,198.47 A78,78 0 0 0 119.49,201.84 Z" fill="#0072b7" stroke="#0072b7" stroke-width="1"/>
<path d="M118.14,199.79 L73.39,228.19 A131,131 0 0 1 69.93,222.42 L116.08,196.35 A78,78 0 0 0 118.14,199.79 Z" fill="#0076ba" stroke="#0076ba" stroke-width="1"/>
<path d="M116.86,197.71 L71.24,224.68 A131,131 0 0 1 67.96,218.80 L114.91,194.20 A78,78 0 0 0 116.86,197.71 Z" fill="#0079ba" stroke="#0079ba" stroke-width="1"/>
<path d="M115.65,195.58 L69.20,221.11 A131,131 0 0 1 66.11,215.13 L113.81,192.01 A78,78 0 0 0 115.65,195.58 Z" fill="#007abc" stroke="#007abc" stroke-width="1"/>
<path d="M114.50,193.41 L67.28,217.47 A131,131 0 0 1 64.38,211.40 L112.77,189.79 A78,78 0 0 0 114.50,193.41 Z" fill="#007cbd" stroke="#007cbd" stroke-width="1"/>
<path d="M113.42,191.21 L65.47,213.78 A131,131 0 0 1 62.76,207.61 L111.81,187.54 A78,78 0 0 0 113.42,191.21 Z" fill="#0079bd" stroke="#0079bd" stroke-width="1"/>
<path d="M112.42,188.98 L63.77,210.03 A131,131 0 0 1 61.26,203.78 L110.92,185.26 A78,78 0 0 0 112.42,188.98 Z" fill="#007ac2" stroke="#007ac2" stroke-width="1"/>
<path d="M111.48,186.71 L62.20,206.22 A131,131 0 0 1 59.88,199.90 L110.10,182.95 A78,78 0 0 0 111.48,186.71 Z" fill="#007cc3" stroke="#007cc3" stroke-width="1"/>
<path d="M110.61,184.42 L60.74,202.37 A131,131 0 0 1 58.63,195.98 L109.35,180.61 A78,78 0 0 0 110.61,184.42 Z" fill="#007ac0" stroke="#007ac0" stroke-width="1"/>
<path d="M109.82,182.10 L59.41,198.48 A131,131 0 0 1 57.50,192.02 L108.68,178.26 A78,78 0 0 0 109.82,182.10 Z" fill="#007bc2" stroke="#007bc2" stroke-width="1"/>
<path d="M109.10,179.76 L58.20,194.55 A131,131 0 0 1 56.49,188.03 L108.08,175.88 A78,78 0 0 0 109.10,179.76 Z" fill="#0080c3" stroke="#0080c3" stroke-width="1"/>
<path d="M108.45,177.40 L57.12,190.58 A131,131 0 0 1 55.61,184.01 L107.55,173.49 A78,78 0 0 0 108.45,177.40 Z" fill="#0082c0" stroke="#0082c0" stroke-width="1"/>
<path d="M107.88,175.02 L56.15,186.58 A131,131 0 0 1 54.86,179.97 L107.10,171.08 A78,78 0 0 0 107.88,175.02 Z" fill="#0084bf" stroke="#0084bf" stroke-width="1"/>
<path d="M107.38,172.62 L55.32,182.55 A131,131 0 0 1 54.23,175.90 L106.73,168.66 A78,78 0 0 0 107.38,172.62 Z" fill="#0087be" stroke="#0087be" stroke-width="1"/>
<path d="M106.96,170.20 L54.61,178.49 A131,131 0 0 1 53.73,171.82 L106.44,166.23 A78,78 0 0 0 106.96,170.20 Z" fill="#0597cc" stroke="#0597cc" stroke-width="1"/>
<path d="M106.62,167.78 L54.03,174.42 A131,131 0 0 1 53.36,167.72 L106.21,163.79 A78,78 0 0 0 106.62,167.78 Z" fill="#1db3e6" stroke="#1db3e6" stroke-width="1"/>
<path d="M106.35,165.34 L53.58,170.33 A131,131 0 0 1 53.12,163.61 L106.07,161.34 A78,78 0 0 0 106.35,165.34 Z" fill="#20b5ea" stroke="#20b5ea" stroke-width="1"/>
<path d="M106.15,162.90 L53.26,166.23 A131,131 0 0 1 53.01,159.50 L106.01,158.89 A78,78 0 0 0 106.15,162.90 Z" fill="#24b8e5" stroke="#24b8e5" stroke-width="1"/>
<path d="M106.04,160.45 L53.06,162.11 A131,131 0 0 1 53.03,155.38 L106.02,156.44 A78,78 0 0 0 106.04,160.45 Z" fill="#26bde9" stroke="#26bde9" stroke-width="1"/>
<path d="M106.00,158.00 L53.00,158.00 A131,131 0 0 1 53.17,151.27 L106.10,153.99 A78,78 0 0 0 106.00,158.00 Z" fill="#30c4ef" stroke="#30c4ef" stroke-width="1"/>
<path d="M106.04,155.55 L53.06,153.89 A131,131 0 0 1 53.45,147.16 L106.27,151.55 A78,78 0 0 0 106.04,155.55 Z" fill="#3dd1f9" stroke="#3dd1f9" stroke-width="1"/>
<path d="M106.15,153.10 L53.26,149.77 A131,131 0 0 1 53.85,143.07 L106.51,149.11 A78,78 0 0 0 106.15,153.10 Z" fill="#41dcfe" stroke="#41dcfe" stroke-width="1"/>
<path d="M106.35,150.66 L53.58,145.67 A131,131 0 0 1 54.39,138.99 L106.83,146.68 A78,78 0 0 0 106.35,150.66 Z" fill="#44dbff" stroke="#44dbff" stroke-width="1"/>
<path d="M106.62,148.22 L54.03,141.58 A131,131 0 0 1 55.05,134.92 L107.22,144.26 A78,78 0 0 0 106.62,148.22 Z" fill="#41d5ff" stroke="#41d5ff" stroke-width="1"/>
<path d="M106.96,145.80 L54.61,137.51 A131,131 0 0 1 55.84,130.88 L107.69,141.85 A78,78 0 0 0 106.96,145.80 Z" fill="#46dcff" stroke="#46dcff" stroke-width="1"/>
<path d="M107.38,143.38 L55.32,133.45 A131,131 0 0 1 56.75,126.87 L108.23,139.47 A78,78 0 0 0 107.38,143.38 Z" fill="#44dcff" stroke="#44dcff" stroke-width="1"/>
<path d="M107.88,140.98 L56.15,129.42 A131,131 0 0 1 57.79,122.89 L108.85,137.10 A78,78 0 0 0 107.88,140.98 Z" fill="#43e1ff" stroke="#43e1ff" stroke-width="1"/>
<path d="M108.45,138.60 L57.12,125.42 A131,131 0 0 1 58.96,118.94 L109.55,134.75 A78,78 0 0 0 108.45,138.60 Z" fill="#47e2ff" stroke="#47e2ff" stroke-width="1"/>
<path d="M109.10,136.24 L58.20,121.45 A131,131 0 0 1 60.25,115.04 L110.31,132.42 A78,78 0 0 0 109.10,136.24 Z" fill="#4be3ff" stroke="#4be3ff" stroke-width="1"/>
<path d="M109.82,133.90 L59.41,117.52 A131,131 0 0 1 61.66,111.17 L111.15,130.12 A78,78 0 0 0 109.82,133.90 Z" fill="#4fe4ff" stroke="#4fe4ff" stroke-width="1"/>
<path d="M110.61,131.58 L60.74,113.63 A131,131 0 0 1 63.19,107.35 L112.07,127.84 A78,78 0 0 0 110.61,131.58 Z" fill="#4fe3ff" stroke="#4fe3ff" stroke-width="1"/>
<path d="M111.48,129.29 L62.20,109.78 A131,131 0 0 1 64.84,103.58 L113.05,125.60 A78,78 0 0 0 111.48,129.29 Z" fill="#4ce2ff" stroke="#4ce2ff" stroke-width="1"/>
<path d="M112.42,127.02 L63.77,105.97 A131,131 0 0 1 66.61,99.86 L114.10,123.38 A78,78 0 0 0 112.42,127.02 Z" fill="#45dfff" stroke="#45dfff" stroke-width="1"/>
<path d="M113.42,124.79 L65.47,102.22 A131,131 0 0 1 68.49,96.20 L115.22,121.21 A78,78 0 0 0 113.42,124.79 Z" fill="#43deff" stroke="#43deff" stroke-width="1"/>
<path d="M114.50,122.59 L67.28,98.53 A131,131 0 0 1 70.49,92.61 L116.41,119.06 A78,78 0 0 0 114.50,122.59 Z" fill="#40dcff" stroke="#40dcff" stroke-width="1"/>
<path d="M115.65,120.42 L69.20,94.89 A131,131 0 0 1 72.60,89.07 L117.67,116.96 A78,78 0 0 0 115.65,120.42 Z" fill="#34dcff" stroke="#34dcff" stroke-width="1"/>
<path d="M116.86,118.29 L71.24,91.32 A131,131 0 0 1 74.82,85.61 L118.99,114.90 A78,78 0 0 0 116.86,118.29 Z" fill="#2eddff" stroke="#2eddff" stroke-width="1"/>
<path d="M118.14,116.21 L73.39,87.81 A131,131 0 0 1 77.15,82.21 L120.38,112.88 A78,78 0 0 0 118.14,116.21 Z" fill="#30dbff" stroke="#30dbff" stroke-width="1"/>
<path d="M119.49,114.16 L75.65,84.37 A131,131 0 0 1 79.58,78.90 L121.83,110.90 A78,78 0 0 0 119.49,114.16 Z" fill="#25d4f8" stroke="#25d4f8" stroke-width="1"/>
<path d="M120.90,112.15 L78.02,81.00 A131,131 0 0 1 82.12,75.66 L123.34,108.97 A78,78 0 0 0 120.90,112.15 Z" fill="#26d3f7" stroke="#26d3f7" stroke-width="1"/>
<path d="M122.37,110.19 L80.49,77.71 A131,131 0 0 1 84.75,72.50 L124.91,107.09 A78,78 0 0 0 122.37,110.19 Z" fill="#28d0f5" stroke="#28d0f5" stroke-width="1"/>
<path d="M123.90,108.28 L83.06,74.50 A131,131 0 0 1 87.49,69.42 L126.53,105.26 A78,78 0 0 0 123.90,108.28 Z" fill="#2ecdf6" stroke="#2ecdf6" stroke-width="1"/>
<path d="M125.49,106.42 L85.74,71.37 A131,131 0 0 1 90.32,66.43 L128.22,103.48 A78,78 0 0 0 125.49,106.42 Z" fill="#35d1f7" stroke="#35d1f7" stroke-width="1"/>
<path d="M127.14,104.61 L88.51,68.32 A131,131 0 0 1 93.24,63.54 L129.96,101.75 A78,78 0 0 0 127.14,104.61 Z" fill="#39d5fa" stroke="#39d5fa" stroke-width="1"/>
<path d="M128.85,102.85 L91.37,65.37 A131,131 0 0 1 96.25,60.73 L131.75,100.08 A78,78 0 0 0 128.85,102.85 Z" fill="#38d5fb" stroke="#38d5fb" stroke-width="1"/>
<path d="M130.61,101.14 L94.32,62.51 A131,131 0 0 1 99.35,58.02 L133.60,98.47 A78,78 0 0 0 130.61,101.14 Z" fill="#31d0f8" stroke="#31d0f8" stroke-width="1"/>
<path d="M132.42,99.49 L97.37,59.74 A131,131 0 0 1 102.53,55.41 L135.49,96.92 A78,78 0 0 0 132.42,99.49 Z" fill="#27c9f1" stroke="#27c9f1" stroke-width="1"/>
<path d="M134.28,97.90 L100.50,57.06 A131,131 0 0 1 105.80,52.90 L137.44,95.42 A78,78 0 0 0 134.28,97.90 Z" fill="#20c7f2" stroke="#20c7f2" stroke-width="1"/>
<path d="M136.19,96.37 L103.71,54.49 A131,131 0 0 1 109.14,50.50 L139.42,93.99 A78,78 0 0 0 136.19,96.37 Z" fill="#1bc1f0" stroke="#1bc1f0" stroke-width="1"/>
<path d="M138.15,94.90 L107.00,52.02 A131,131 0 0 1 112.55,48.20 L141.46,92.62 A78,78 0 0 0 138.15,94.90 Z" fill="#19bfee" stroke="#19bfee" stroke-width="1"/>
<path d="M140.16,93.49 L110.37,49.65 A131,131 0 0 1 116.03,46.01 L143.53,91.32 A78,78 0 0 0 140.16,93.49 Z" fill="#1abcf1" stroke="#1abcf1" stroke-width="1"/>
<path d="M142.21,92.14 L113.81,47.39 A131,131 0 0 1 119.58,43.93 L145.65,90.08 A78,78 0 0 0 142.21,92.14 Z" fill="#18bbf3" stroke="#18bbf3" stroke-width="1"/>
<path d="M144.29,90.86 L117.32,45.24 A131,131 0 0 1 123.20,41.96 L147.80,88.91 A78,78 0 0 0 144.29,90.86 Z" fill="#19baf3" stroke="#19baf3" stroke-width="1"/>
<path d="M146.42,89.65 L120.89,43.20 A131,131 0 0 1 126.87,40.11 L149.99,87.81 A78,78 0 0 0 146.42,89.65 Z" fill="#16b4ee" stroke="#16b4ee" stroke-width="1"/>
<path d="M148.59,88.50 L124.53,41.28 A131,131 0 0 1 130.60,38.38 L152.21,86.77 A78,78 0 0 0 148.59,88.50 Z" fill="#16b3ee" stroke="#16b3ee" stroke-width="1"/>
<path d="M150.79,87.42 L128.22,39.47 A131,131 0 0 1 134.39,36.76 L154.46,85.81 A78,78 0 0 0 150.79,87.42 Z" fill="#18b1ef" stroke="#18b1ef" stroke-width="1"/>
<path d="M153.02,86.42 L131.97,37.77 A131,131 0 0 1 138.22,35.26 L156.74,84.92 A78,78 0 0 0 153.02,86.42 Z" fill="#16afeb" stroke="#16afeb" stroke-width="1"/>
<path d="M155.29,85.48 L135.78,36.20 A131,131 0 0 1 142.10,33.88 L159.05,84.10 A78,78 0 0 0 155.29,85.48 Z" fill="#0fa8e8" stroke="#0fa8e8" stroke-width="1"/>
<path d="M157.58,84.61 L139.63,34.74 A131,131 0 0 1 146.02,32.63 L161.39,83.35 A78,78 0 0 0 157.58,84.61 Z" fill="#0ea4e5" stroke="#0ea4e5" stroke-width="1"/>
<path d="M159.90,83.82 L143.52,33.41 A131,131 0 0 1 149.98,31.50 L163.74,82.68 A78,78 0 0 0 159.90,83.82 Z" fill="#0ea0df" stroke="#0ea0df" stroke-width="1"/>
<path d="M162.24,83.10 L147.45,32.20 A131,131 0 0 1 153.97,30.49 L166.12,82.08 A78,78 0 0 0 162.24,83.10 Z" fill="#12a0d6" stroke="#12a0d6" stroke-width="1"/>
<path d="M164.60,82.45 L151.42,31.12 A131,131 0 0 1 157.99,29.61 L168.51,81.55 A78,78 0 0 0 164.60,82.45 Z" fill="#2fb4e1" stroke="#2fb4e1" stroke-width="1"/>
<path d="M166.98,81.88 L155.42,30.15 A131,131 0 0 1 162.03,28.86 L170.92,81.10 A78,78 0 0 0 166.98,81.88 Z" fill="#67d9ff" stroke="#67d9ff" stroke-width="1"/>
<path d="M169.38,81.38 L159.45,29.32 A131,131 0 0 1 166.10,28.23 L173.34,80.73 A78,78 0 0 0 169.38,81.38 Z" fill="#6dcaf4" stroke="#6dcaf4" stroke-width="1"/>
<path d="M171.80,80.96 L163.51,28.61 A131,131 0 0 1 170.18,27.73 L175.77,80.44 A78,78 0 0 0 171.80,80.96 Z" fill="#85baf0" stroke="#85baf0" stroke-width="1"/>
<path d="M174.22,80.62 L167.58,28.03 A131,131 0 0 1 174.28,27.36 L178.21,80.21 A78,78 0 0 0 174.22,80.62 Z" fill="#646dac" stroke="#646dac" stroke-width="1"/>
<path d="M176.66,80.35 L171.67,27.58 A131,131 0 0 1 178.39,27.12 L180.66,80.07 A78,78 0 0 0 176.66,80.35 Z" fill="#40125c" stroke="#40125c" stroke-width="1"/>
<path d="M179.10,80.15 L175.77,27.26 A131,131 0 0 1 182.50,27.01 L183.11,80.01 A78,78 0 0 0 179.10,80.15 Z" fill="#5d1365" stroke="#5d1365" stroke-width="1"/>
<path d="M181.55,80.04 L179.89,27.06 A131,131 0 0 1 186.62,27.03 L185.56,80.02 A78,78 0 0 0 181.55,80.04 Z" fill="#68126a" stroke="#68126a" stroke-width="1"/>
<path d="M184.00,80.00 L184.00,27.00 A131,131 0 0 1 190.73,27.17 L188.01,80.10 A78,78 0 0 0 184.00,80.00 Z" fill="#74126e" stroke="#74126e" stroke-width="1"/>
<path d="M186.45,80.04 L188.11,27.06 A131,131 0 0 1 194.84,27.45 L190.45,80.27 A78,78 0 0 0 186.45,80.04 Z" fill="#801171" stroke="#801171" stroke-width="1"/>
<path d="M188.90,80.15 L192.23,27.26 A131,131 0 0 1 198.93,27.85 L192.89,80.51 A78,78 0 0 0 188.90,80.15 Z" fill="#871272" stroke="#871272" stroke-width="1"/>
<path d="M191.34,80.35 L196.33,27.58 A131,131 0 0 1 203.01,28.39 L195.32,80.83 A78,78 0 0 0 191.34,80.35 Z" fill="#8e1274" stroke="#8e1274" stroke-width="1"/>
<path d="M193.78,80.62 L200.42,28.03 A131,131 0 0 1 207.08,29.05 L197.74,81.22 A78,78 0 0 0 193.78,80.62 Z" fill="#981375" stroke="#981375" stroke-width="1"/>
<path d="M196.20,80.96 L204.49,28.61 A131,131 0 0 1 211.12,29.84 L200.15,81.69 A78,78 0 0 0 196.20,80.96 Z" fill="#9d1477" stroke="#9d1477" stroke-width="1"/>
<path d="M198.62,81.38 L208.55,29.32 A131,131 0 0 1 215.13,30.75 L202.53,82.23 A78,78 0 0 0 198.62,81.38 Z" fill="#a7167c" stroke="#a7167c" stroke-width="1"/>
<path d="M201.02,81.88 L212.58,30.15 A131,131 0 0 1 219.11,31.79 L204.90,82.85 A78,78 0 0 0 201.02,81.88 Z" fill="#ad187f" stroke="#ad187f" stroke-width="1"/>
<path d="M203.40,82.45 L216.58,31.12 A131,131 0 0 1 223.06,32.96 L207.25,83.55 A78,78 0 0 0 203.40,82.45 Z" fill="#b41b82" stroke="#b41b82" stroke-width="1"/>
<path d="M205.76,83.10 L220.55,32.20 A131,131 0 0 1 226.96,34.25 L209.58,84.31 A78,78 0 0 0 205.76,83.10 Z" fill="#bb1986" stroke="#bb1986" stroke-width="1"/>
<path d="M208.10,83.82 L224.48,33.41 A131,131 0 0 1 230.83,35.66 L211.88,85.15 A78,78 0 0 0 208.10,83.82 Z" fill="#c41b8b" stroke="#c41b8b" stroke-width="1"/>
<path d="M210.42,84.61 L228.37,34.74 A131,131 0 0 1 234.65,37.19 L214.16,86.07 A78,78 0 0 0 210.42,84.61 Z" fill="#c71f89" stroke="#c71f89" stroke-width="1"/>
<path d="M212.71,85.48 L232.22,36.20 A131,131 0 0 1 238.42,38.84 L216.40,87.05 A78,78 0 0 0 212.71,85.48 Z" fill="#cc268f" stroke="#cc268f" stroke-width="1"/>
<path d="M214.98,86.42 L236.03,37.77 A131,131 0 0 1 242.14,40.61 L218.62,88.10 A78,78 0 0 0 214.98,86.42 Z" fill="#d22f92" stroke="#d22f92" stroke-width="1"/>
<path d="M217.21,87.42 L239.78,39.47 A131,131 0 0 1 245.80,42.49 L220.79,89.22 A78,78 0 0 0 217.21,87.42 Z" fill="#d53898" stroke="#d53898" stroke-width="1"/>
<path d="M219.41,88.50 L243.47,41.28 A131,131 0 0 1 249.39,44.49 L222.94,90.41 A78,78 0 0 0 219.41,88.50 Z" fill="#dc46a0" stroke="#dc46a0" stroke-width="1"/>
<path d="M221.58,89.65 L247.11,43.20 A131,131 0 0 1 252.93,46.60 L225.04,91.67 A78,78 0 0 0 221.58,89.65 Z" fill="#e35ba9" stroke="#e35ba9" stroke-width="1"/>
<path d="M223.71,90.86 L250.68,45.24 A131,131 0 0 1 256.39,48.82 L227.10,92.99 A78,78 0 0 0 223.71,90.86 Z" fill="#e86cac" stroke="#e86cac" stroke-width="1"/>
<path d="M225.79,92.14 L254.19,47.39 A131,131 0 0 1 259.79,51.15 L229.12,94.38 A78,78 0 0 0 225.79,92.14 Z" fill="#ef7db0" stroke="#ef7db0" stroke-width="1"/>
<path d="M227.84,93.49 L257.63,49.65 A131,131 0 0 1 263.10,53.58 L231.10,95.83 A78,78 0 0 0 227.84,93.49 Z" fill="#ee86b1" stroke="#ee86b1" stroke-width="1"/>
<path d="M229.85,94.90 L261.00,52.02 A131,131 0 0 1 266.34,56.12 L233.03,97.34 A78,78 0 0 0 229.85,94.90 Z" fill="#f49ab6" stroke="#f49ab6" stroke-width="1"/>
<path d="M231.81,96.37 L264.29,54.49 A131,131 0 0 1 269.50,58.75 L234.91,98.91 A78,78 0 0 0 231.81,96.37 Z" fill="#f9a5b4" stroke="#f9a5b4" stroke-width="1"/>
<path d="M233.72,97.90 L267.50,57.06 A131,131 0 0 1 272.58,61.49 L236.74,100.53 A78,78 0 0 0 233.72,97.90 Z" fill="#feacb3" stroke="#feacb3" stroke-width="1"/>
<path d="M235.58,99.49 L270.63,59.74 A131,131 0 0 1 275.57,64.32 L238.52,102.22 A78,78 0 0 0 235.58,99.49 Z" fill="#ffb2af" stroke="#ffb2af" stroke-width="1"/>
<path d="M237.39,101.14 L273.68,62.51 A131,131 0 0 1 278.46,67.24 L240.25,103.96 A78,78 0 0 0 237.39,101.14 Z" fill="#ffb8ac" stroke="#ffb8ac" stroke-width="1"/>
<path d="M239.15,102.85 L276.63,65.37 A131,131 0 0 1 281.27,70.25 L241.92,105.75 A78,78 0 0 0 239.15,102.85 Z" fill="#ffc0a9" stroke="#ffc0a9" stroke-width="1"/>
<path d="M240.86,104.61 L279.49,68.32 A131,131 0 0 1 283.98,73.35 L243.53,107.60 A78,78 0 0 0 240.86,104.61 Z" fill="#ffc7a9" stroke="#ffc7a9" stroke-width="1"/>
<path d="M242.51,106.42 L282.26,71.37 A131,131 0 0 1 286.59,76.53 L245.08,109.49 A78,78 0 0 0 242.51,106.42 Z" fill="#ffcfa8" stroke="#ffcfa8" stroke-width="1"/>
<path d="M244.10,108.28 L284.94,74.50 A131,131 0 0 1 289.10,79.80 L246.58,111.44 A78,78 0 0 0 244.10,108.28 Z" fill="#ffd9ae" stroke="#ffd9ae" stroke-width="1"/>
<path d="M245.63,110.19 L287.51,77.71 A131,131 0 0 1 291.50,83.14 L248.01,113.42 A78,78 0 0 0 245.63,110.19 Z" fill="#ffe5b6" stroke="#ffe5b6" stroke-width="1"/>
<path d="M247.10,112.15 L289.98,81.00 A131,131 0 0 1 293.80,86.55 L249.38,115.46 A78,78 0 0 0 247.10,112.15 Z" fill="#ffeaba" stroke="#ffeaba" stroke-width="1"/>
<path d="M248.51,114.16 L292.35,84.37 A131,131 0 0 1 295.99,90.03 L250.68,117.53 A78,78 0 0 0 248.51,114.16 Z" fill="#ffeab9" stroke="#ffeab9" stroke-width="1"/>
<path d="M249.86,116.21 L294.61,87.81 A131,131 0 0 1 298.07,93.58 L251.92,119.65 A78,78 0 0 0 249.86,116.21 Z" fill="#ffedb8" stroke="#ffedb8" stroke-width="1"/>
<path d="M251.14,118.29 L296.76,91.32 A131,131 0 0 1 300.04,97.20 L253.09,121.80 A78,78 0 0 0 251.14,118.29 Z" fill="#ffedb7" stroke="#ffedb7" stroke-width="1"/>
<path d="M252.35,120.42 L298.80,94.89 A131,131 0 0 1 301.89,100.87 L254.19,123.99 A78,78 0 0 0 252.35,120.42 Z" fill="#ffecaa" stroke="#ffecaa" stroke-width="1"/>
<path d="M253.50,122.59 L300.72,98.53 A131,131 0 0 1 303.62,104.60 L255.23,126.21 A78,78 0 0 0 253.50,122.59 Z" fill="#ffeba0" stroke="#ffeba0" stroke-width="1"/>
<path d="M254.58,124.79 L302.53,102.22 A131,131 0 0 1 305.24,108.39 L256.19,128.46 A78,78 0 0 0 254.58,124.79 Z" fill="#ffe69d" stroke="#ffe69d" stroke-width="1"/>
<path d="M255.58,127.02 L304.23,105.97 A131,131 0 0 1 306.74,112.22 L257.08,130.74 A78,78 0 0 0 255.58,127.02 Z" fill="#ffe499" stroke="#ffe499" stroke-width="1"/>
<path d="M256.52,129.29 L305.80,109.78 A131,131 0 0 1 308.12,116.10 L257.90,133.05 A78,78 0 0 0 256.52,129.29 Z" fill="#ffe59c" stroke="#ffe59c" stroke-width="1"/>
<path d="M257.39,131.58 L307.26,113.63 A131,131 0 0 1 309.37,120.02 L258.65,135.39 A78,78 0 0 0 257.39,131.58 Z" fill="#ffe49e" stroke="#ffe49e" stroke-width="1"/>
<path d="M258.18,133.90 L308.59,117.52 A131,131 0 0 1 310.50,123.98 L259.32,137.74 A78,78 0 0 0 258.18,133.90 Z" fill="#ffe8a2" stroke="#ffe8a2" stroke-width="1"/>
<path d="M258.90,136.24 L309.80,121.45 A131,131 0 0 1 311.51,127.97 L259.92,140.12 A78,78 0 0 0 258.90,136.24 Z" fill="#ffe6a1" stroke="#ffe6a1" stroke-width="1"/>
<path d="M259.55,138.60 L310.88,125.42 A131,131 0 0 1 312.39,131.99 L260.45,142.51 A78,78 0 0 0 259.55,138.60 Z" fill="#ffe29f" stroke="#ffe29f" stroke-width="1"/>
<path d="M260.12,140.98 L311.85,129.42 A131,131 0 0 1 313.14,136.03 L260.90,144.92 A78,78 0 0 0 260.12,140.98 Z" fill="#ffe19c" stroke="#ffe19c" stroke-width="1"/>
<path d="M260.62,143.38 L312.68,133.45 A131,131 0 0 1 313.77,140.10 L261.27,147.34 A78,78 0 0 0 260.62,143.38 Z" fill="#ffde92" stroke="#ffde92" stroke-width="1"/>
<path d="M261.04,145.80 L313.39,137.51 A131,131 0 0 1 314.27,144.18 L261.56,149.77 A78,78 0 0 0 261.04,145.80 Z" fill="#ffd188" stroke="#ffd188" stroke-width="1"/>
<path d="M261.38,148.22 L313.97,141.58 A131,131 0 0 1 314.64,148.28 L261.79,152.21 A78,78 0 0 0 261.38,148.22 Z" fill="#ffd183" stroke="#ffd183" stroke-width="1"/>
<path d="M261.65,150.66 L314.42,145.67 A131,131 0 0 1 314.88,152.39 L261.93,154.66 A78,78 0 0 0 261.65,150.66 Z" fill="#fec068" stroke="#fec068" stroke-width="1"/>
<path d="M261.85,153.10 L314.74,149.77 A131,131 0 0 1 314.99,156.50 L261.99,157.11 A78,78 0 0 0 261.85,153.10 Z" fill="#eda64f" stroke="#eda64f" stroke-width="1"/>
<path d="M261.96,155.55 L314.94,153.89 A131,131 0 0 1 314.97,160.62 L261.98,159.56 A78,78 0 0 0 261.96,155.55 Z" fill="#eba14c" stroke="#eba14c" stroke-width="1"/>
</g>
<path d="M249.50,271.45 A131,131 0 0 1 223.17,283.01 L207.33,232.43 A78,78 0 0 0 223.00,225.55 Z" fill="#3a2a4a" stroke="#3a2a4a" stroke-width="0.8"/>
<path d="M224.48,282.59 A131,131 0 0 1 196.33,288.42 L191.34,235.65 A78,78 0 0 0 208.10,232.18 Z" fill="#33324f" stroke="#33324f" stroke-width="0.8"/>
<path d="M197.69,288.28 A131,131 0 0 1 168.94,288.13 L175.03,235.48 A78,78 0 0 0 192.15,235.57 Z" fill="#2c3a5e" stroke="#2c3a5e" stroke-width="0.8"/>
<path d="M170.31,288.28 A131,131 0 0 1 142.22,282.16 L159.12,231.93 A78,78 0 0 0 175.85,235.57 Z" fill="#274368" stroke="#274368" stroke-width="0.8"/>
<path d="M143.52,282.59 A131,131 0 0 1 113.42,268.36 L141.98,223.71 A78,78 0 0 0 159.90,232.18 Z" fill="#244a72" stroke="#244a72" stroke-width="0.8"/>
<path d="M249.50,271.45 L223.00,225.55" stroke="#0a0c14" stroke-opacity="0.55" stroke-width="5" stroke-linecap="round"/>
<path d="M243.47,274.72 L223.04,234.63" stroke="#5a86b8" stroke-opacity="0.5" stroke-width="1.5" stroke-linecap="round"/>
<path d="M47,150 L47,361 Q47,374 54,373 L48,374 L54,373 L65,370 L75,366 L82,361 L88,357 L93,352 L98,346 L102,339 L105,331 L107,324 L108,318 L108,150 Q108,118 78,114 Q50,118 47,150 Z" fill="url(#stem)"/>
<path d="M47,150 L47,361 Q47,374 54,373 L48,374 L54,373 L65,370 L75,366 L82,361 L88,357 L93,352 L98,346 L102,339 L105,331 L107,324 L108,318 L108,150 Q108,118 78,114 Q50,118 47,150 Z" fill="url(#stemv)"/>
<path fill="url(#ringgloss)" fill-rule="evenodd" d="M53,158 a131,131 0 1,0 262,0 a131,131 0 1,0 -262,0 Z M106,158 a78,78 0 1,0 156,0 a78,78 0 1,0 -156,0 Z"/>
<circle cx="184" cy="158" r="130" fill="none" stroke="#fff" stroke-opacity="0.22" stroke-width="1.6"/>
<circle cx="184" cy="158" r="89" fill="none" stroke="#06101e" stroke-opacity="0.30" stroke-width="2"/>
<circle cx="184" cy="158" r="80" fill="none" stroke="#fff" stroke-opacity="0.13" stroke-width="1.4"/>
<path d="M47.5,205 L47.5,361 Q47.5,373 53,374" fill="none" stroke="#64b8de" stroke-opacity="0.6" stroke-width="2" stroke-linecap="round"/>
<path d="M107,210 L107,320 Q106,338 99,351" fill="none" stroke="#06101e" stroke-opacity="0.32" stroke-width="2.4" stroke-linecap="round"/>
<path d="M102,210 L102,318 Q101,336 93,350" fill="none" stroke="#57abe2" stroke-opacity="0.5" stroke-width="2.2" stroke-linecap="round"/>
<path d="M55,300 Q52,350 62,370 Q56,356 56,330 L58,300 Z" fill="#020c1c" opacity="0.3"/>
<g>
<circle cx="184" cy="158" r="77" fill="url(#apdisc)"/>
<path d="M196.19,138.49 L255.30,147.98 L228.33,214.74 L206.99,158.80 Z" fill="#3d4852" stroke="#1c232a" stroke-width="1" stroke-linejoin="round"/>
<path d="M206.99,158.80 L228.33,214.74 L157.03,224.76 L194.80,178.31 Z" fill="#36404a" stroke="#1c232a" stroke-width="1" stroke-linejoin="round"/>
<path d="M194.80,178.31 L157.03,224.76 L112.70,168.02 L171.81,177.51 Z" fill="#2c353e" stroke="#1c232a" stroke-width="1" stroke-linejoin="round"/>
<path d="M171.81,177.51 L112.70,168.02 L139.67,101.26 L161.01,157.20 Z" fill="#3a444e" stroke="#1c232a" stroke-width="1" stroke-linejoin="round"/>
<path d="M161.01,157.20 L139.67,101.26 L210.97,91.24 L173.20,137.69 Z" fill="#303a43" stroke="#1c232a" stroke-width="1" stroke-linejoin="round"/>
<path d="M173.20,137.69 L210.97,91.24 L255.30,147.98 L196.19,138.49 Z" fill="#272f38" stroke="#1c232a" stroke-width="1" stroke-linejoin="round"/>
<path d="M196.19,138.49206.99,158.80 L194.80,178.31 L171.81,177.51 L161.01,157.20 L173.20,137.69 Z" fill="#222c34"/>
<circle cx="184" cy="158" r="70" fill="url(#apvig)"/>
<circle cx="184" cy="158" r="75.5" fill="none" stroke="#171d23" stroke-width="3"/>
<circle cx="184" cy="158" r="73.5" fill="none" stroke="#46535d" stroke-opacity="0.6" stroke-width="1"/>
</g>
</svg>